<svg xmlns="http://www.w3.org/2000/svg" xmlns:xlink="http://www.w3.org/1999/xlink" width="6230.377" height="1062" viewBox="0 0 6230.377 1062">
  <defs>
    <clipPath id="clip-path">
      <rect id="Rectangle_55" data-name="Rectangle 55" width="6230.377" height="470.527" fill="none"/>
    </clipPath>
    <clipPath id="clip-path-2">
      <rect id="Rectangle_34" data-name="Rectangle 34" width="608.996" height="224.511" rx="2" fill="none"/>
    </clipPath>
    <clipPath id="clip-path-3">
      <rect id="Rectangle_35" data-name="Rectangle 35" width="70.84" height="111.586" fill="none"/>
    </clipPath>
    <clipPath id="clip-path-4">
      <rect id="Rectangle_36" data-name="Rectangle 36" width="309.203" height="154.602" fill="none"/>
    </clipPath>
    <clipPath id="clip-path-5">
      <rect id="Rectangle_37" data-name="Rectangle 37" width="470.529" height="235.263" fill="none"/>
    </clipPath>
    <clipPath id="clip-path-6">
      <path id="Rectangle_38" data-name="Rectangle 38" d="M2,0H352.9a2,2,0,0,1,2,2V224.511a0,0,0,0,1,0,0H0a0,0,0,0,1,0,0V2A2,2,0,0,1,2,0Z" fill="none"/>
    </clipPath>
    <clipPath id="clip-path-7">
      <rect id="Rectangle_39" data-name="Rectangle 39" width="149.224" height="219.243" fill="none"/>
    </clipPath>
    <clipPath id="clip-path-8">
      <path id="Rectangle_40" data-name="Rectangle 40" d="M2,0H147.224a2,2,0,0,1,2,2V223.72a0,0,0,0,1,0,0H0a0,0,0,0,1,0,0V2A2,2,0,0,1,2,0Z" fill="none"/>
    </clipPath>
    <clipPath id="clip-path-9">
      <path id="Rectangle_41" data-name="Rectangle 41" d="M2,0H387.8a2,2,0,0,1,2,2V220.589a0,0,0,0,1,0,0H0a0,0,0,0,1,0,0V2A2,2,0,0,1,2,0Z" fill="none"/>
    </clipPath>
    <clipPath id="clip-path-10">
      <rect id="Rectangle_42" data-name="Rectangle 42" width="219.796" height="156.252" fill="none"/>
    </clipPath>
    <clipPath id="clip-path-12">
      <rect id="Rectangle_44" data-name="Rectangle 44" width="470.527" height="235.263" fill="none"/>
    </clipPath>
    <clipPath id="clip-path-13">
      <path id="Rectangle_45" data-name="Rectangle 45" d="M2,0H262.167a2,2,0,0,1,2,2V220.927a0,0,0,0,1,0,0H0a0,0,0,0,1,0,0V2A2,2,0,0,1,2,0Z" fill="none"/>
    </clipPath>
    <clipPath id="clip-path-14">
      <rect id="Rectangle_46" data-name="Rectangle 46" width="332.729" height="224.511" rx="2" fill="none"/>
    </clipPath>
    <clipPath id="clip-path-15">
      <path id="Rectangle_47" data-name="Rectangle 47" d="M2,0H262.167a2,2,0,0,1,2,2V219.243a0,0,0,0,1,0,0H0a0,0,0,0,1,0,0V2A2,2,0,0,1,2,0Z" fill="none"/>
    </clipPath>
    <clipPath id="clip-path-16">
      <path id="Rectangle_48" data-name="Rectangle 48" d="M2,0H147.224a2,2,0,0,1,2,2V218.291a0,0,0,0,1,0,0H0a0,0,0,0,1,0,0V2A2,2,0,0,1,2,0Z" fill="none"/>
    </clipPath>
    <clipPath id="clip-path-17">
      <path id="Rectangle_49" data-name="Rectangle 49" d="M2,0H262.167a2,2,0,0,1,2,2V218.291a0,0,0,0,1,0,0H0a0,0,0,0,1,0,0V2A2,2,0,0,1,2,0Z" fill="none"/>
    </clipPath>
    <clipPath id="clip-path-18">
      <path id="Rectangle_50" data-name="Rectangle 50" d="M2,0H379.8a2,2,0,0,1,2,2V218.291a0,0,0,0,1,0,0H0a0,0,0,0,1,0,0V2A2,2,0,0,1,2,0Z" fill="none"/>
    </clipPath>
    <clipPath id="clip-path-19">
      <rect id="Rectangle_51" data-name="Rectangle 51" width="95.907" height="134.269" fill="none"/>
    </clipPath>
    <clipPath id="clip-path-20">
      <path id="Rectangle_52" data-name="Rectangle 52" d="M2,0H247.379a2,2,0,0,1,2,2V230a0,0,0,0,1,0,0H0a0,0,0,0,1,0,0V2A2,2,0,0,1,2,0Z" fill="none"/>
    </clipPath>
    <clipPath id="clip-path-21">
      <rect id="Rectangle_53" data-name="Rectangle 53" width="3.186" height="2.13" fill="none"/>
    </clipPath>
    <clipPath id="clip-path-22">
      <path id="Rectangle_54" data-name="Rectangle 54" d="M2,0H1203.893a2,2,0,0,1,2,2V219.243a0,0,0,0,1,0,0H0a0,0,0,0,1,0,0V2A2,2,0,0,1,2,0Z" fill="none"/>
    </clipPath>
  </defs>
  <g id="Group_179" data-name="Group 179" transform="translate(-470 -3375)">
    <g id="Group_161" data-name="Group 161" transform="translate(470 3375)">
      <path id="Path_216" data-name="Path 216" d="M495.606,55.368h18.142L401.5,396.17H384.7L295.29,114.52,205.9,396.17h-16.8L76.831,55.368H94.98L197.158,365.25,295.29,55.368,393.428,365.25ZM447.881,1.6,396.123,158.211,344.366,1.6H246.22L194.463,158.211,142.711,1.6.762,29.437l137.91,420.507H250.26L295.29,314.157l45.043,135.787H451.908L599.794,1.6Z" transform="translate(9.202 9.155)" fill="#fff"/>
      <g id="Group_131" data-name="Group 131">
        <g id="Group_130" data-name="Group 130" clip-path="url(#clip-path)">
          <path id="Path_217" data-name="Path 217" d="M492.228,68.9A237.57,237.57,0,0,0,417.28,18.485a235.291,235.291,0,0,0-182.833,0A235.16,235.16,0,0,0,109.085,143.84,228.969,228.969,0,0,0,90.6,235.263a228.834,228.834,0,0,0,18.485,91.41A235.125,235.125,0,0,0,234.447,452.042a235.291,235.291,0,0,0,182.833,0A235.123,235.123,0,0,0,542.642,326.673a229.071,229.071,0,0,0,18.485-91.41,229.206,229.206,0,0,0-18.485-91.423A237.844,237.844,0,0,0,492.228,68.9M484.5,302.145a173.409,173.409,0,0,1-91.752,91.746,173.091,173.091,0,0,1-133.764,0,173.41,173.41,0,0,1-91.753-91.746,173.09,173.09,0,0,1,0-133.764,173.374,173.374,0,0,1,91.753-91.759,173.091,173.091,0,0,1,133.764,0A173.373,173.373,0,0,1,484.5,168.381a173.089,173.089,0,0,1,0,133.764" transform="translate(518.396 0)" fill="#fff"/>
          <path id="Path_218" data-name="Path 218" d="M366.43,57.372A157.107,157.107,0,0,0,317.361,24.1a155.614,155.614,0,0,0-120.32,0A157.34,157.34,0,0,0,114.7,106.441a149.546,149.546,0,0,0-12.1,60.16,149.523,149.523,0,0,0,12.1,60.16A157.34,157.34,0,0,0,197.041,309.1a155.614,155.614,0,0,0,120.32,0A157.341,157.341,0,0,0,399.7,226.762a149.525,149.525,0,0,0,12.1-60.16,149.548,149.548,0,0,0-12.1-60.16A157.14,157.14,0,0,0,366.43,57.372M343.912,203.235a94.433,94.433,0,0,1-50.078,50.071,94.369,94.369,0,0,1-73.268,0,94.429,94.429,0,0,1-50.077-50.071,94.448,94.448,0,0,1,0-73.268,94.393,94.393,0,0,1,50.077-50.084,94.529,94.529,0,0,1,73.268,0,94.4,94.4,0,0,1,50.078,50.084,94.451,94.451,0,0,1,0,73.268" transform="translate(587.052 68.662)" fill="#fff"/>
          <path id="Path_219" data-name="Path 219" d="M373.622,1.6H224.4V449.944H497.3V332.312H373.622Zm86.039,378.438v16.132H291.616V55.373h17.477V380.037Z" transform="translate(1283.962 9.149)" fill="#fff"/>
          <path id="Path_220" data-name="Path 220" d="M453.511,50.65Q406.123,12,320.756,12H281.1V320.524h39.659q85.36,0,132.756-38.98T500.9,165.923q0-76.619-47.389-115.272M417.55,238.861q-27.566,23.866-77.973,23.862V69.808q50.413,0,77.973,23.526,27.556,23.543,27.559,72.589,0,49.083-27.559,72.938" transform="translate(1608.383 68.662)" fill="#fff"/>
          <path id="Path_221" data-name="Path 221" d="M588.791,58.069q-33.948-28.232-83.35-42.347T392.85,1.6H268.5V449.944H392.85q63.179,0,112.591-14.452t83.35-42.684q33.939-28.221,51.757-70.243,17.807-41.995,17.813-97.13,0-55.1-17.813-97.123-17.816-42-51.757-70.243m-47.725,293.4q-50.08,44.717-148.216,44.7H335.715V55.373H392.85q98.135,0,148.216,44.371,50.072,44.354,50.077,125.691T541.066,351.469" transform="translate(1536.288 9.149)" fill="#fff"/>
          <path id="Path_222" data-name="Path 222" d="M732.124,68.9a237.555,237.555,0,0,0-74.949-50.414,235.291,235.291,0,0,0-182.833,0A235.169,235.169,0,0,0,348.981,143.84,228.969,228.969,0,0,0,330.5,235.263a228.834,228.834,0,0,0,18.484,91.41A235.133,235.133,0,0,0,474.343,452.042a235.291,235.291,0,0,0,182.833,0A235.122,235.122,0,0,0,782.538,326.673a229.064,229.064,0,0,0,18.485-91.41,229.2,229.2,0,0,0-18.485-91.423A237.838,237.838,0,0,0,732.124,68.9M724.4,302.145a173.41,173.41,0,0,1-91.753,91.746,173.09,173.09,0,0,1-133.764,0,173.4,173.4,0,0,1-91.753-91.746,173.09,173.09,0,0,1,0-133.764,173.368,173.368,0,0,1,91.753-91.759,173.09,173.09,0,0,1,133.764,0A173.375,173.375,0,0,1,724.4,168.381a173.1,173.1,0,0,1,0,133.764" transform="translate(1891.041 0)" fill="#fff"/>
          <path id="Path_223" data-name="Path 223" d="M606.328,57.372A157.1,157.1,0,0,0,557.259,24.1a155.614,155.614,0,0,0-120.32,0A157.343,157.343,0,0,0,354.6,106.441a149.548,149.548,0,0,0-12.1,60.16,149.525,149.525,0,0,0,12.1,60.16A157.343,157.343,0,0,0,436.938,309.1a155.615,155.615,0,0,0,120.32,0A157.34,157.34,0,0,0,639.6,226.762a149.524,149.524,0,0,0,12.1-60.16,149.547,149.547,0,0,0-12.1-60.16,157.139,157.139,0,0,0-33.273-49.069M583.81,203.235a94.427,94.427,0,0,1-50.078,50.071,94.37,94.37,0,0,1-73.268,0,94.431,94.431,0,0,1-50.078-50.071,94.449,94.449,0,0,1,0-73.268,94.4,94.4,0,0,1,50.078-50.084,94.529,94.529,0,0,1,73.268,0,94.392,94.392,0,0,1,50.078,50.084,94.456,94.456,0,0,1,0,73.268" transform="translate(1959.702 68.662)" fill="#fff"/>
          <path id="Path_224" data-name="Path 224" d="M549.17,119.232H670.163V1.6H406V449.945H549.17V280.555H668.146V168.973H549.17ZM618.405,216.7V232.83H490.69V396.17H473.214V55.374H625.127V71.507H490.69V216.7Z" transform="translate(2323.031 9.155)" fill="#fff"/>
          <path id="Path_225" data-name="Path 225" d="M523.269,1.6,477.562,119.231H601.243L445.3,449.944h311.22l45.037-117.632H654.345L810.29,1.6ZM728.285,380.037l-6.721,16.132H537.385L690.642,71.513H552.174l6.049-16.139H718.2L564.945,380.037Z" transform="translate(2547.899 9.149)" fill="#fff"/>
          <path id="Path_226" data-name="Path 226" d="M645.769,280.554H764.744V168.979H645.769V119.231H766.762V1.6H502.595V449.944H771.467V332.312h-125.7Zm75.955,99.483v16.132H569.812V55.373H721.724V71.513H587.289V216.7H715v16.139H587.289v147.2Z" transform="translate(2875.753 9.149)" fill="#fff"/>
          <path id="Path_227" data-name="Path 227" d="M697.818,1.6H548.594V449.944H821.5V332.312H697.818Zm86.039,378.438v16.132H615.813V55.373h17.476V380.037Z" transform="translate(3138.95 9.149)" fill="#fff"/>
          <path id="Path_228" data-name="Path 228" d="M735.867,280.554H854.843V168.979H735.867V119.231H856.86V1.6H592.693V449.944H861.564V332.312h-125.7Zm75.964,99.483v16.132H659.91V55.373h151.92V71.513H677.394V216.7H805.108v16.139H677.394v147.2Z" transform="translate(3391.276 9.149)" fill="#fff"/>
          <path id="Path_229" data-name="Path 229" d="M880,174.35,756.325,1.6H638.692V449.945H779.177V277.873L902.186,449.945h118.3V1.6H880ZM940.5,55.374h17.477v340.8H940.5L718.681,85.623V396.17H701.2V55.374h17.478L940.5,365.922Z" transform="translate(3654.474 9.155)" fill="#fff"/>
          <path id="Path_230" data-name="Path 230" d="M954.91,236.608a201.057,201.057,0,0,0-28.9-32.271q-15.81-14.106-28.9-24.864Q884,168.724,874.921,160.645T865.846,147.2q0-6.04,4.034-9.4a23.344,23.344,0,0,1,9.412-4.705,61.525,61.525,0,0,1,11.426-1.68q6.051-.343,10.083-.336,7.389,0,14.116.665,6.7.686,12.1,1.351,6.708.676,12.1,1.344V8.738Q925,6.712,910.21,4.705q-12.773-1.341-28.9-3.025A312.458,312.458,0,0,0,849.042,0,196.191,196.191,0,0,0,790.9,8.4Q763.677,16.811,743.51,32.93a112.28,112.28,0,0,0-31.594,40.331q-11.442,24.209-11.426,55.8,0,28.232,9.41,50.071a161.4,161.4,0,0,0,23.863,39.329,223.15,223.15,0,0,0,30.921,30.914q16.464,13.46,30.92,24.541a281.3,281.3,0,0,1,23.861,20.165q9.407,9.064,9.414,17.806,0,22.868-30.922,22.861a295.944,295.944,0,0,1-34.618-2.017,244.139,244.139,0,0,1-30.585-5.377,220.46,220.46,0,0,1-30.919-7.4V454.388a322.914,322.914,0,0,0,35.625,8.073q16.8,3.358,38.651,5.707a442.665,442.665,0,0,0,47.388,2.359q42.347,0,73.268-11.1,30.914-11.081,50.751-30.248a117.819,117.819,0,0,0,29.24-45.036,161.013,161.013,0,0,0,9.41-55.455q0-28.232-9.075-51.079a188.451,188.451,0,0,0-22.182-41M910.548,362.642a74.091,74.091,0,0,1-22.518,25.879,92.2,92.2,0,0,1-31.93,14.452,153.062,153.062,0,0,1-36.635,4.362q-10.758,0-21.171-1c-6.951-.679-13.558-1.452-19.831-2.359q-10.757-1.331-20.165-3.361v-17.47q9.4,2.017,19.493,3.361a237.308,237.308,0,0,0,41.673,3.361q38.315,0,60.162-16.8,21.83-16.8,21.847-49.069a64.124,64.124,0,0,0-9.747-33.609,165.509,165.509,0,0,0-24.871-31.256Q851.732,244,834.589,229.207q-17.139-14.771-32.264-30.578a177.707,177.707,0,0,1-24.87-32.265,68.035,68.035,0,0,1-9.745-35.29q0-34.947,23.526-51.429,23.522-16.455,59.823-16.468,6.052,0,11.762.343t10.419,1a79.709,79.709,0,0,0,10.083.679V82.678a87.4,87.4,0,0,1-10.753-.672q-5.4-.665-11.092-1.008-5.717-.343-11.091-.336-34.28,0-49.741,13.108-15.477,13.108-15.46,37.306,0,16.122,9.746,31.25A184.453,184.453,0,0,0,819.8,192.573q15.124,15.124,32.263,29.912a423.067,423.067,0,0,1,32.265,30.927A171.4,171.4,0,0,1,909.2,287.021a74.835,74.835,0,0,1,9.745,36.97q0,22.858-8.4,38.65" transform="translate(4008.076 0)" fill="#fff"/>
          <path id="Path_231" data-name="Path 231" d="M1794.069,1.6l-51.085,94.784L1691.226,1.6h-291.72l-51.086,94.784L1296.662,1.6H977.375l-84.7,103.523V1.6H747.491V449.944H892.675V311.481l95.448,138.462h172.759L994.845,206.614,1143.755,13.355,1276.5,257.028V449.944h143.175V257.028l125.692-230.74,125.7,230.74V449.944h143.174V257.028L1953.375,1.6Zm-879.886,203L1045.26,396.169h-20.832L902.092,218.713l-69.915,86.711v90.744H814.708V55.373h17.469V278.538L1013,55.373h21.51Zm442.976,30.92V396.169H1339.01V235.518L1241.543,55.373h20.165l86.711,159.307,86.04-159.307h20.831Zm394.564,0V396.169h-18.15V235.518L1636.106,55.373h20.165l86.713,159.307,86.037-159.307h20.839Z" transform="translate(4277 9.149)" fill="#fff"/>
          <g id="Group_69" data-name="Group 69" transform="translate(0 10.752)" style="isolation: isolate">
            <g id="Group_68" data-name="Group 68">
              <g id="Group_67" data-name="Group 67" clip-path="url(#clip-path-2)">
                <path id="Path_232" data-name="Path 232" d="M405.325,158.218,353.567,1.6H255.429L203.671,158.218,151.913,1.6H0L74.054,226.115H142.28L86.039,55.374h18.149l56.3,170.741h89.945L304.5,55.374l54.07,170.741h89.944l56.3-170.741h18.149L466.722,226.115h68.226L609,1.6H457.083Z" transform="translate(-0.001 -1.601)" fill="#ffd500"/>
              </g>
            </g>
          </g>
          <g id="Group_72" data-name="Group 72" transform="translate(269.077 123.677)" style="isolation: isolate">
            <g id="Group_71" data-name="Group 71">
              <g id="Group_70" data-name="Group 70" clip-path="url(#clip-path-3)">
                <path id="Path_233" data-name="Path 233" d="M40.03,129.988h70.841L75.448,18.4Z" transform="translate(-40.03 -18.402)" fill="#ffd500"/>
              </g>
            </g>
          </g>
          <path id="Path_234" data-name="Path 234" d="M329.6,38.937q-34.624-26.87-95.786-26.887H178.7V218.41h55.119q61.162,0,95.786-26.544t34.617-76.3q0-49.728-34.617-76.629M287.929,151.191q-17.816,11.444-43.356,11.427h-7.394V63.136h7.394q25.539,0,43.356,11.434t17.813,38.314q0,26.891-17.813,38.308" transform="translate(1022.481 68.948)" fill="#fff"/>
          <path id="Path_235" data-name="Path 235" d="M460.514,302.115a145.3,145.3,0,0,0,30.248-29.576q11.424-15.457,20.837-38.986t9.411-57.135q0-42.347-15.124-74.948a154.05,154.05,0,0,0-42.011-54.783Q436.984,24.5,400.354,13.077T320.7,1.65H166.1V449.995H309.273V336.4l67.218,113.6H544.536ZM441.693,396.22H420.855L357,288.671a240.769,240.769,0,0,1-51.086,5.378H250.793V396.22H233.317V55.424h72.6q31.589,0,58.48,7.73t46.717,22.854a109.407,109.407,0,0,1,31.256,37.306q11.423,22.182,11.427,51.758,0,42.347-21.51,68.9t-57.807,39.323Z" transform="translate(950.387 9.441)" fill="#fff"/>
          <g id="Group_75" data-name="Group 75" transform="translate(689.657 80.662)" style="isolation: isolate">
            <g id="Group_74" data-name="Group 74">
              <g id="Group_73" data-name="Group 73" clip-path="url(#clip-path-4)">
                <path id="Path_236" data-name="Path 236" d="M366.431,57.372A157.1,157.1,0,0,0,317.362,24.1a155.614,155.614,0,0,0-120.32,0A157.341,157.341,0,0,0,114.7,106.441a149.546,149.546,0,0,0-12.1,60.16h60.5a91.421,91.421,0,0,1,7.394-36.634A94.414,94.414,0,0,1,220.568,79.89a94.449,94.449,0,0,1,73.268,0,94.415,94.415,0,0,1,50.078,50.077,91.536,91.536,0,0,1,7.394,36.634h60.5a149.546,149.546,0,0,0-12.1-60.16,157.225,157.225,0,0,0-33.273-49.069" transform="translate(-102.6 -12)" fill="#ffd500"/>
              </g>
            </g>
          </g>
          <g id="Group_78" data-name="Group 78" transform="translate(608.993)" style="isolation: isolate">
            <g id="Group_77" data-name="Group 77">
              <g id="Group_76" data-name="Group 76" clip-path="url(#clip-path-5)">
                <path id="Path_237" data-name="Path 237" d="M492.228,68.9A237.57,237.57,0,0,0,417.28,18.485a235.291,235.291,0,0,0-182.833,0A235.16,235.16,0,0,0,109.085,143.84,229.084,229.084,0,0,0,90.6,235.263h63.185a167.251,167.251,0,0,1,13.444-66.882,173.374,173.374,0,0,1,91.753-91.759,173.091,173.091,0,0,1,133.764,0A173.373,173.373,0,0,1,484.5,168.381a167.477,167.477,0,0,1,13.444,66.882h63.185a229.206,229.206,0,0,0-18.485-91.423A237.609,237.609,0,0,0,492.228,68.9" transform="translate(-90.597 0)" fill="#ffd500"/>
              </g>
            </g>
          </g>
          <g id="Group_81" data-name="Group 81" transform="translate(1116.486 10.752)" style="isolation: isolate">
            <g id="Group_80" data-name="Group 80">
              <g id="Group_79" data-name="Group 79" clip-path="url(#clip-path-6)">
                <path id="Path_238" data-name="Path 238" d="M463.874,46.636q-26.891-22.182-63.521-33.609T320.7,1.6H166.1V226.108h67.218V55.374h72.6q31.589,0,58.48,7.73t46.716,22.854a109.405,109.405,0,0,1,31.257,37.306q11.423,22.182,11.427,51.758c0,19.581-3.536,36.573-10.432,51.086h70.693c4.544-14.2,6.958-30.672,6.958-49.741q0-42.347-15.125-74.948a154.049,154.049,0,0,0-42.011-54.783" transform="translate(-166.105 -1.597)" fill="#ffd500"/>
              </g>
            </g>
          </g>
          <path id="Path_239" data-name="Path 239" d="M329.6,38.887Q294.979,12.007,233.818,12H178.7V166.6h173.08c8.234-14.291,12.442-31.283,12.442-51.092q0-49.728-34.617-76.622M287.929,151.141q-17.816,11.434-43.356,11.42h-7.394V63.079h7.394q25.539,0,43.356,11.434t17.813,38.314q0,26.891-17.813,38.314" transform="translate(1022.481 68.662)" fill="#ffd500"/>
          <g id="Group_84" data-name="Group 84" transform="translate(1508.36 10.752)" style="isolation: isolate">
            <g id="Group_83" data-name="Group 83">
              <g id="Group_82" data-name="Group 82" clip-path="url(#clip-path-7)">
                <path id="Path_240" data-name="Path 240" d="M224.4,220.845h67.218V55.374h17.477V220.845h64.529V1.6H224.4Z" transform="translate(-224.398 -1.601)" fill="#ffd500"/>
              </g>
            </g>
          </g>
          <g id="Group_87" data-name="Group 87" transform="translate(1508.36 11.09)" style="isolation: isolate">
            <g id="Group_86" data-name="Group 86">
              <g id="Group_85" data-name="Group 85" clip-path="url(#clip-path-8)">
                <path id="Path_241" data-name="Path 241" d="M224.4,225.372h67.218V55.424h17.477V225.372h64.529V1.65H224.4Z" transform="translate(-224.398 -1.652)" fill="#ffd500"/>
              </g>
            </g>
          </g>
          <g id="Group_90" data-name="Group 90" transform="translate(1804.792 10.752)" style="isolation: isolate">
            <g id="Group_89" data-name="Group 89">
              <g id="Group_88" data-name="Group 88" clip-path="url(#clip-path-9)">
                <path id="Path_242" data-name="Path 242" d="M640.55,128.312q-17.815-42-51.758-70.243T505.442,15.722Q456.036,1.606,392.851,1.6H268.5v220.59h67.218V55.373h57.135q98.135,0,148.216,44.371,49.052,43.456,50.01,122.444H658.3q-.514-53.075-17.746-93.877" transform="translate(-268.498 -1.603)" fill="#ffd500"/>
              </g>
            </g>
          </g>
          <g id="Group_93" data-name="Group 93" transform="translate(1889.487 80.662)" style="isolation: isolate">
            <g id="Group_92" data-name="Group 92">
              <g id="Group_91" data-name="Group 91" clip-path="url(#clip-path-10)">
                <path id="Path_243" data-name="Path 243" d="M453.513,50.65Q406.123,12,320.757,12H281.1V168.255h58.481V69.808q50.413,0,77.973,23.526,27.555,23.543,27.558,72.589c0,.807-.073,1.539-.087,2.333h55.784c.007-.8.094-1.526.094-2.333q0-76.619-47.388-115.272" transform="translate(-281.098 -12)" fill="#ffd500"/>
              </g>
            </g>
          </g>
          <g id="Group_96" data-name="Group 96" transform="translate(2302.199 80.662)" style="isolation: isolate">
            <g id="Group_95" data-name="Group 95">
              <g id="Group_94" data-name="Group 94" clip-path="url(#clip-path-4)">
                <path id="Path_244" data-name="Path 244" d="M606.328,57.372A157.1,157.1,0,0,0,557.259,24.1a155.614,155.614,0,0,0-120.32,0A157.343,157.343,0,0,0,354.6,106.441a149.548,149.548,0,0,0-12.1,60.16h60.5a91.427,91.427,0,0,1,7.394-36.634A94.413,94.413,0,0,1,460.465,79.89a94.45,94.45,0,0,1,73.268,0,94.409,94.409,0,0,1,50.078,50.077A91.546,91.546,0,0,1,591.2,166.6h60.5a149.547,149.547,0,0,0-12.1-60.16,157.216,157.216,0,0,0-33.273-49.069" transform="translate(-342.497 -12)" fill="#ffd500"/>
              </g>
            </g>
          </g>
          <g id="Group_99" data-name="Group 99" transform="translate(2221.538)" style="isolation: isolate">
            <g id="Group_98" data-name="Group 98">
              <g id="Group_97" data-name="Group 97" clip-path="url(#clip-path-12)">
                <path id="Path_245" data-name="Path 245" d="M732.124,68.9a237.555,237.555,0,0,0-74.949-50.414,235.291,235.291,0,0,0-182.833,0A235.169,235.169,0,0,0,348.981,143.84,229.08,229.08,0,0,0,330.5,235.263h63.185a167.256,167.256,0,0,1,13.444-66.882,173.368,173.368,0,0,1,91.753-91.759,173.09,173.09,0,0,1,133.764,0A173.375,173.375,0,0,1,724.4,168.381a167.5,167.5,0,0,1,13.443,66.882h63.185a229.2,229.2,0,0,0-18.485-91.423A237.6,237.6,0,0,0,732.124,68.9" transform="translate(-330.497 0)" fill="#ffd500"/>
              </g>
            </g>
          </g>
          <g id="Group_102" data-name="Group 102" transform="translate(2729.027 10.752)" style="isolation: isolate">
            <g id="Group_101" data-name="Group 101">
              <g id="Group_100" data-name="Group 100" clip-path="url(#clip-path-13)">
                <path id="Path_246" data-name="Path 246" d="M406,222.525h67.218V55.374H625.126V71.507H490.69V216.7H618.4v5.828h49.742V168.973H549.17V119.231H670.164V1.6H406Z" transform="translate(-405.996 -1.598)" fill="#ffd500"/>
              </g>
            </g>
          </g>
          <g id="Group_105" data-name="Group 105" transform="translate(3025.459 10.752)" style="isolation: isolate">
            <g id="Group_104" data-name="Group 104">
              <g id="Group_103" data-name="Group 103" clip-path="url(#clip-path-14)">
                <path id="Path_247" data-name="Path 247" d="M450.1,119.231H573.777L523.384,226.108H590.2l72.978-154.6H524.708l6.05-16.132h159.98L610.143,226.108h66.815L782.825,1.6H495.8Z" transform="translate(-450.098 -1.6)" fill="#ffd500"/>
              </g>
            </g>
          </g>
          <g id="Group_108" data-name="Group 108" transform="translate(3378.347 10.752)" style="isolation: isolate">
            <g id="Group_107" data-name="Group 107">
              <g id="Group_106" data-name="Group 106" clip-path="url(#clip-path-15)">
                <path id="Path_248" data-name="Path 248" d="M502.594,220.845h67.217V55.374H721.725V71.513H587.289V216.7H715v4.147h49.742V168.979H645.769V119.231H766.762V1.6H502.594Z" transform="translate(-502.596 -1.601)" fill="#ffd500"/>
              </g>
            </g>
          </g>
          <g id="Group_111" data-name="Group 111" transform="translate(3687.544 10.752)" style="isolation: isolate">
            <g id="Group_110" data-name="Group 110">
              <g id="Group_109" data-name="Group 109" clip-path="url(#clip-path-16)">
                <path id="Path_249" data-name="Path 249" d="M548.594,219.89h67.218V55.374h17.476V219.89h64.53V1.6H548.594Z" transform="translate(-548.595 -1.599)" fill="#ffd500"/>
              </g>
            </g>
          </g>
          <g id="Group_114" data-name="Group 114" transform="translate(3983.969 10.752)" style="isolation: isolate">
            <g id="Group_113" data-name="Group 113">
              <g id="Group_112" data-name="Group 112" clip-path="url(#clip-path-17)">
                <path id="Path_250" data-name="Path 250" d="M592.693,219.89h67.218V55.374H811.824V71.506H677.388V216.7H805.1v3.193h49.743V168.973H735.867V119.231H856.859V1.6H592.693Z" transform="translate(-592.69 -1.599)" fill="#ffd500"/>
              </g>
            </g>
          </g>
          <g id="Group_117" data-name="Group 117" transform="translate(4293.166 10.752)" style="isolation: isolate">
            <g id="Group_116" data-name="Group 116">
              <g id="Group_115" data-name="Group 115" clip-path="url(#clip-path-18)">
                <path id="Path_251" data-name="Path 251" d="M880,174.35,756.324,1.6H638.692V219.891H701.2V55.374h17.476L836.192,219.891H940.5V55.374h17.477V219.891h62.512V1.6H880Z" transform="translate(-638.691 -1.598)" fill="#ffd500"/>
              </g>
            </g>
          </g>
          <g id="Group_120" data-name="Group 120" transform="translate(4373.154 94.775)" style="isolation: isolate">
            <g id="Group_119" data-name="Group 119">
              <g id="Group_118" data-name="Group 118" clip-path="url(#clip-path-19)">
                <path id="Path_252" data-name="Path 252" d="M650.592,148.368H746.5L650.592,14.1Z" transform="translate(-650.59 -14.099)" fill="#ffd500"/>
              </g>
            </g>
          </g>
          <g id="Group_123" data-name="Group 123" transform="translate(4708.566)" style="isolation: isolate">
            <g id="Group_122" data-name="Group 122">
              <g id="Group_121" data-name="Group 121" clip-path="url(#clip-path-20)">
                <path id="Path_253" data-name="Path 253" d="M879.291,133.092a61.605,61.605,0,0,1,11.426-1.68q6.06-.333,10.083-.336c4.935,0,9.633.229,14.123.672,4.469.45,8.5.907,12.1,1.344,4.47.45,8.5.907,12.092,1.344V8.738Q925,6.722,910.219,4.705,897.433,3.374,881.314,1.68A312.583,312.583,0,0,0,849.042,0,196.187,196.187,0,0,0,790.9,8.4q-27.231,8.409-47.388,24.535a112.1,112.1,0,0,0-31.594,40.331q-11.443,24.2-11.432,55.791,0,28.232,9.416,50.077a160.831,160.831,0,0,0,23.863,39.323c3.329,4.026,6.762,7.831,10.252,11.541h91.449c-.3-.262-.578-.531-.873-.786q-17.151-14.781-32.265-30.584a176.973,176.973,0,0,1-24.87-32.265,68.026,68.026,0,0,1-9.754-35.29q0-34.947,23.526-51.422t59.831-16.468q6.041,0,11.763.336c3.8.235,7.272.565,10.419,1.008a80.9,80.9,0,0,0,10.082.672V82.678a86.122,86.122,0,0,1-10.76-.672q-5.383-.665-11.087-1.008-5.725-.333-11.1-.336-34.271,0-49.733,13.108-15.479,13.108-15.468,37.306,0,16.132,9.746,31.256A184.454,184.454,0,0,0,819.8,192.58q15.124,15.124,32.263,29.912c2.837,2.447,5.505,5,8.255,7.508h89.555a198.212,198.212,0,0,0-23.869-25.657q-15.8-14.116-28.9-24.871t-22.177-18.821q-9.084-8.066-9.081-13.444,0-6.05,4.04-9.411a23.4,23.4,0,0,1,9.405-4.705" transform="translate(-700.491 0)" fill="#ffd500"/>
              </g>
            </g>
          </g>
          <g id="Group_126" data-name="Group 126" transform="translate(5177.372 227.865)" style="isolation: isolate">
            <g id="Group_125" data-name="Group 125">
              <g id="Group_124" data-name="Group 124" clip-path="url(#clip-path-21)">
                <path id="Path_254" data-name="Path 254" d="M773.42,36.03,771.956,33.9l-1.721,2.131Z" transform="translate(-770.236 -33.9)" fill="#ffd500"/>
              </g>
            </g>
          </g>
          <g id="Group_129" data-name="Group 129" transform="translate(5024.484 10.752)" style="isolation: isolate">
            <g id="Group_128" data-name="Group 128">
              <g id="Group_127" data-name="Group 127" clip-path="url(#clip-path-22)">
                <path id="Path_255" data-name="Path 255" d="M1742.989,96.383,1691.232,1.6H1399.506l-51.081,94.784L1296.669,1.6H977.383l-84.7,103.523V1.6H747.489V220.844h67.217V55.374h17.479V220.844h46.748L1013,55.374h21.518L914.19,204.6l11.12,16.24h79.249l-9.708-14.23L1143.762,13.356l113.026,207.489h74.283L1241.544,55.374h20.165l86.717,159.314,86.04-159.314H1455.3l-90.139,165.471h74.228L1545.368,26.288l105.983,194.556h74.282L1636.112,55.374h20.166l86.712,159.314,86.039-159.314h20.831L1759.72,220.844h74.229L1953.381,1.6H1794.074Z" transform="translate(-747.491 -1.602)" fill="#ffd500"/>
              </g>
            </g>
          </g>
        </g>
      </g>
    </g>
    <text id="join_the_league" data-name="join the league" transform="translate(5427 4353)" fill="#fff" font-size="396" font-family="Lato-Regular, Lato"><tspan x="-1272.744" y="0">join the league</tspan></text>
  </g>
</svg>
