<svg xmlns="http://www.w3.org/2000/svg" xmlns:xlink="http://www.w3.org/1999/xlink" viewBox="0 0 1963.3 359.3" style="enable-background:new 0 0 1963.3 359.3" xml:space="preserve"><style>.st2{fill:#fff}.st4{fill:#ffd500}</style><g id="spłaszczone"><g id="Group_163_00000024697877973898106780000017553348366664499632_"><g transform="translate(-470 -3375)"><path class="st2" d="M665 3378.6h-41.1l-17.4 52.7-17.4-52.7h-33l-17.4 52.7-17.4-52.7-47.8 9.4 46.4 141.5h37.6l15.2-45.7 15.2 45.7h37.6l44.8-135.9c-5.6-2.7-7.3-9.6-5.3-15zm-56.8 132.8h-5.7l-30.1-94.8-30.1 94.8h-5.7L499 3396.7h6.1l34.4 104.3 33-104.3 33 104.3 34.4-104.3h6.1l-37.8 114.7z"/><path class="st2" d="M810.2 3398.2c-7.2-7.2-15.8-13-25.2-17-19.7-8.3-41.9-8.3-61.5 0-19 8-34.2 23.2-42.2 42.2-4.2 9.7-6.3 20.2-6.2 30.8-.1 10.6 2.1 21 6.2 30.8 8 19 23.2 34.2 42.2 42.2 19.7 8.3 41.9 8.3 61.5 0 19-8 34.2-23.2 42.2-42.2 4.2-9.7 6.3-20.2 6.2-30.8.1-10.6-2.1-21-6.2-30.8-4.1-9.4-9.8-18-17-25.2m-2.6 78.5c-5.9 13.9-17 25-30.9 30.9-14.4 6-30.6 6-45 0-13.9-5.9-25-17-30.9-30.9-6-14.4-6-30.6 0-45 5.9-13.9 17-25 30.9-30.9 14.4-6 30.6-6 45 0 13.9 5.9 25 17 30.9 30.9 6 14.4 6 30.6 0 45" id="Path_217_00000041295101941978104090000017095281638848378796_"/><path class="st2" d="M790.9 3417.4c-4.7-4.7-10.3-8.5-16.5-11.2-13-5.4-27.5-5.4-40.5 0-12.5 5.4-22.4 15.3-27.7 27.7-5.4 13-5.4 27.5 0 40.5 5.4 12.5 15.3 22.4 27.7 27.7 13 5.4 27.5 5.4 40.5 0 12.5-5.4 22.4-15.3 27.7-27.7 5.4-13 5.4-27.5 0-40.5-2.6-6.1-6.4-11.7-11.2-16.5m-7.5 49.1c-3.2 7.6-9.3 13.6-16.9 16.9-7.9 3.3-16.8 3.3-24.6 0-7.6-3.2-13.6-9.3-16.9-16.9-3.3-7.9-3.3-16.8 0-24.6 3.2-7.6 9.3-13.6 16.9-16.9 7.9-3.3 16.8-3.3 24.6 0 7.6 3.2 13.6 9.3 16.9 16.9 3.3 7.9 3.3 16.8 0 24.6" id="Path_218_00000036250144960130868050000006136431467774513537_"/><path class="st2" d="M1027.9 3489.9v-100.5c-.5.1-1 .1-1.5.1-7.2 0-10.9-5.3-11.2-10.9H995c-.7 5.2-4.4 10-11.2 10-2.5 0-4.5-.6-6.2-1.7v142.6h91.9v-39.6h-41.6zm29 21.5h-56.6v-114.7h5.9V3506h50.7v5.4z"/><path class="st2" d="M1164 3415.2c-10.6-8.7-25.5-13-44.7-13H1106V3506h13.3c19.2 0 34-4.4 44.7-13.1 10.6-8.7 16-21.7 16-38.9-.1-17.2-5.4-30.2-16-38.8m-12.1 63.3c-7.5 5.8-16.8 8.6-26.2 8v-64.9c9.4-.6 18.7 2.2 26.2 7.9 6.2 5.3 9.3 13.4 9.3 24.4 0 11.1-3.1 19.2-9.3 24.6" id="Path_220_00000026140690068018180530000008265921087170037673_"/><path class="st2" d="M1202.7 3421.3c-3.8-9.2-9.8-17.3-17.4-23.6-8.3-6.7-17.8-11.5-28.1-14.3-12.4-3.3-25.1-4.9-37.9-4.8H1093c.1 5.9-3.7 11.8-11.3 11.8-1.6 0-3-.3-4.2-.7v139.8h41.9c12.8.2 25.6-1.5 37.9-4.9 10.2-2.8 19.8-7.7 28.1-14.4 7.6-6.4 13.6-14.5 17.4-23.6 4.2-10.4 6.2-21.5 6-32.7.1-11.1-1.9-22.3-6.1-32.6zm-33.5 75.1c-11.2 10-27.9 15-49.9 15h-19.2v-114.7h19.2c22 0 38.6 5 49.9 14.9s16.9 24.1 16.9 42.3c0 18.3-5.7 32.4-16.9 42.5z"/><path class="st2" d="M1352.9 3398.2c-7.2-7.2-15.8-13-25.2-17-19.7-8.3-41.9-8.3-61.5 0-19 8-34.2 23.2-42.2 42.2-4.2 9.7-6.3 20.2-6.2 30.8-.1 10.6 2.1 21 6.2 30.8 8 19 23.2 34.2 42.2 42.2 19.7 8.3 41.9 8.3 61.5 0 19-8 34.2-23.2 42.2-42.2 4.2-9.7 6.3-20.2 6.2-30.8.1-10.6-2.1-21-6.2-30.8-4-9.4-9.8-18-17-25.2m-2.6 78.5c-5.9 13.9-17 25-30.9 30.9-14.4 6-30.6 6-45 0-13.9-5.9-25-17-30.9-30.9-6-14.4-6-30.6 0-45 5.9-13.9 17-25 30.9-30.9 14.4-6 30.6-6 45 0 13.9 5.9 25 17 30.9 30.9 6 14.4 6 30.6 0 45" id="Path_222_00000003090313388922914170000002473480601238509227_"/><path class="st2" d="M1333.7 3417.4c-4.7-4.7-10.3-8.5-16.5-11.2-13-5.4-27.5-5.4-40.5 0-12.4 5.4-22.4 15.3-27.7 27.7-5.4 13-5.4 27.5 0 40.5 5.4 12.4 15.3 22.4 27.7 27.7 13 5.4 27.5 5.4 40.5 0 12.5-5.4 22.4-15.3 27.7-27.7 5.4-13 5.4-27.5 0-40.5-2.7-6.1-6.5-11.7-11.2-16.5m-7.6 49.1c-3.2 7.6-9.3 13.6-16.9 16.9-7.9 3.3-16.8 3.3-24.6 0-7.6-3.2-13.6-9.3-16.9-16.9-3.3-7.9-3.3-16.8 0-24.6 3.2-7.6 9.3-13.6 16.9-16.9 7.9-3.3 16.8-3.3 24.6 0 7.6 3.2 13.6 9.3 16.9 16.9 3.3 7.9 3.3 16.8 0 24.6" id="Path_223_00000078762916990175035910000007250963156982409101_"/><path class="st2" d="M1475 3387.1c-1.7 1.1-3.8 1.8-6.4 1.8-6.9 0-10.6-4.9-11.2-10.3h-57.3c-1 4.8-4.6 9-11 9h-.6v141.9h48.2v-57h40.1V3435h-40.1v-16.7h40.7v-28.4c-1-.8-1.8-1.8-2.4-2.8zm-12.7 15H1417v48.9h43v5.4h-43v55h-5.9v-114.7h51.1v5.4zM1593.6 3392.8c-.4 0-.7.1-1.1.1-8.6 0-12.3-7.7-11-14.2h-77.8l-15.4 39.6h41.6l-52.4 111.3h104.7l15.2-39.6h-49.6l45.8-97.2zm-20.9 113.2-2.3 5.4h-62l51.6-109.3h-46.6l2-5.4h53.8l-51.6 109.3h55.1zM1655.3 3489.9v-17.4h40.1V3435h-40.1v-16.7h40.7v-28.1c-.9.2-1.9.4-3 .4-7.6 0-11.3-5.9-11.3-11.8h-58.3c.1 5.3-3 10.6-9.1 11.6-1.7 1.8-4.1 3.1-7.2 3.4v135.9h90.5v-39.6h-42.3zm25.5 21.5h-51.1v-114.7h51.1v5.4h-45.2v48.9h43v5.4h-43v49.6h45.2v5.4zM1761.4 3489.9v-99.2c-.5.1-1 .1-1.6.1-7.8 0-11.5-6.2-11.2-12.2h-24.3c1.5 6.6-2.1 14.6-10.9 14.6-.8 0-1.5-.1-2.2-.2v136.5h91.9v-39.6h-41.7zm28.9 21.5h-56.6v-114.7h5.9V3506h50.7v5.4zM1859.1 3489.9v-17.4h40.1V3435h-40.1v-16.7h40.7v-31.7c-1.8 1.4-4.2 2.4-7.1 2.4-6.9 0-10.6-4.9-11.2-10.2h-57.1c-.6 5.3-4.3 10.2-11.2 10.2-.8 0-1.6-.1-2.3-.2v140.9h90.5v-39.6h-42.3zm25.6 21.5h-51.1v-114.7h51.1v5.4h-45.2v48.9h43v5.4h-43v49.6h45.2v5.4zM2042.4 3390.7c-7.7 0-11.4-6.1-11.2-12.1h-34.9v58.1l-41.6-58.1h-26.9c-.2 5.7-3.9 11.2-11.2 11.2-.5 0-1 0-1.5-.1v139.8h47.3v-57.9l41.4 57.9h39.8v-138.9c-.5.1-.9.1-1.2.1zm-20 120.7h-5.9l-74.7-104.5v104.5h-5.9v-114.7h5.9l74.7 104.5v-104.5h5.9v114.7z"/><path class="st2" d="M2140.4 3454.6c-2.8-4-6.1-7.6-9.7-10.9-3.5-3.2-6.8-6-9.7-8.4s-5.4-4.5-7.5-6.3c-2-1.8-3.1-3.3-3.1-4.5-.1-1.2.4-2.4 1.4-3.2.9-.8 2-1.3 3.2-1.6 1.3-.3 2.5-.5 3.8-.6 1.4-.1 2.5-.1 3.4-.1 1.7 0 3.2.1 4.7.2s2.9.3 4.1.4c1.5.2 2.9.3 4.1.4v-42.3c-3.2-.5-6.4-.9-9.7-1.4l-9.7-1c-3.6-.4-7.2-.6-10.9-.6-6.6 0-13.2.9-19.6 2.8-5.8 1.7-11.2 4.5-16 8.3-4.5 3.6-8.2 8.3-10.6 13.6-2.7 5.9-4 12.3-3.8 18.8-.1 5.8 1 11.5 3.2 16.9 2 4.8 4.7 9.2 8 13.2 3.1 3.8 6.6 7.3 10.4 10.4 3.7 3 7.2 5.8 10.4 8.3 2.8 2.1 5.5 4.4 8 6.8 1.8 1.5 3 3.6 3.2 6 0 5.1-3.5 7.7-10.4 7.7-3.9 0-7.8-.2-11.7-.7-3.5-.4-6.9-1-10.3-1.8-3.5-.6-7-1.4-10.4-2.5v45.2c3.9 1.1 7.9 2 12 2.7 3.8.8 8.1 1.4 13 1.9 5.3.5 10.6.8 16 .8 8.4.2 16.7-1.1 24.6-3.7 6.4-2.1 12.2-5.6 17.1-10.2 4.4-4.2 7.8-9.4 9.8-15.2 2.1-6 3.2-12.3 3.2-18.7.1-5.9-1-11.7-3.1-17.2-1.8-4.6-4.3-9.2-7.4-13.5m-14.9 42.4c-1.8 3.5-4.4 6.4-7.6 8.7-3.2 2.3-6.9 3.9-10.7 4.9-4 1-8.2 1.5-12.3 1.5-2.4 0-4.8-.1-7.1-.3-2.3-.2-4.6-.5-6.7-.8-2.4-.3-4.7-.7-6.8-1.1v-5.9c2.1.5 4.3.8 6.6 1.1 4.6.8 9.3 1.2 14 1.1 7.2.4 14.3-1.6 20.2-5.7 5-4 7.7-10.1 7.4-16.5 0-4-1.2-7.9-3.3-11.3-2.4-3.8-5.2-7.4-8.4-10.5-3.4-3.4-7-6.8-10.9-10.1-3.8-3.3-7.5-6.7-10.9-10.3-3.2-3.3-6-6.9-8.4-10.9-2.2-3.6-3.3-7.7-3.3-11.9-.5-6.7 2.5-13.3 7.9-17.3 6-3.9 13-5.8 20.1-5.5 1.4 0 2.7 0 4 .1 1.3.1 2.5.2 3.5.3 1.1.1 2.3.2 3.4.2v5.9c-1.2 0-2.4-.1-3.6-.2-1.2-.1-2.5-.3-3.7-.3-1.3-.1-2.5-.1-3.7-.1-5.9-.5-11.8 1-16.7 4.4-3.6 3.2-5.5 7.8-5.2 12.6 0 3.8 1.2 7.4 3.3 10.5 2.4 3.7 5.2 7.1 8.4 10.2 3.4 3.4 7 6.8 10.9 10.1 3.8 3.3 7.4 6.8 10.9 10.4 3.2 3.4 6 7.2 8.4 11.3 2.2 3.8 3.3 8.1 3.3 12.4 0 4.5-1 9-3 13" id="Path_230_00000159448788248323310740000015223058000569733005_"/><path class="st2" d="M2420.6 3378.6h-40.1l-17.2 31.9-17.4-31.9h-107.5l-28.5 34.8v-34.8h-37.8c-.7 5.1-4.4 9.8-11.1 9.8v141.1h48.9v-46.6l32.1 46.6h58.1l-55.9-81.9 50.1-65.1 44.7 82v64.9h48.2v-64.9l40-73.4c-5-1.9-7.2-7.4-6.6-12.5zm-203.4 68.3 44.1 64.5h-7l-41.2-59.7-23.5 29.2v30.5h-5.9v-114.7h5.9v75.1l60.9-75.1h7.2l-40.5 50.2zm149.1 10.5v54.1h-6.1v-54.1l-32.8-60.6h6.8l29.2 53.6 29-53.6h7l-33.1 60.6z"/><g id="Group_69_00000096053856498810270030000017847709448629625482_" transform="translate(0 .822)"><g id="Group_68_00000047759585157363530160000008737216714973854363_"><defs><path id="SVGID_00000145032891487403216770000014762325185288483001_" d="M478.8 3377.8h187.4c4.9 0 8.8 3.9 8.8 8.8v58c0 4.9-3.9 8.8-8.8 8.8H478.8c-4.9 0-8.8-3.9-8.8-8.8v-58c0-4.9 3.9-8.8 8.8-8.8z"/></defs><clipPath id="SVGID_00000102538541404878074520000011299308562031793285_"><use xlink:href="#SVGID_00000145032891487403216770000014762325185288483001_" style="overflow:visible"/></clipPath><g id="Group_67_00000040533392987643432310000007693080048422933181_" style="clip-path:url(#SVGID_00000102538541404878074520000011299308562031793285_)"><path class="st4" d="m606.4 3430.5-17.4-52.7h-33l-17.4 52.7-17.4-52.7H470l24.9 75.6h23l-18.9-57.5h6.1l18.9 57.5h30.3l18.2-57.5 18.2 57.5H621l18.9-57.5h6.1l-18.9 57.5h23l24.9-75.6h-51.1l-17.5 52.7z" id="Path_232_00000100366675078124275580000009583449733279812795_"/></g></g></g><g id="Group_72_00000165926060426085613270000005351150055170890914_" transform="translate(20.577 9.458)"><g id="Group_71_00000061452037597537171810000018301721194132017053_"><defs><path id="SVGID_00000125569179136723376460000012905080104848817296_" d="M540 3407.2h23.8v37.6H540z"/></defs><clipPath id="SVGID_00000147902852743655562440000016103419755813818531_"><use xlink:href="#SVGID_00000125569179136723376460000012905080104848817296_" style="overflow:visible"/></clipPath><g id="Group_70_00000036221162323115910810000000870686612450619060_" style="clip-path:url(#SVGID_00000147902852743655562440000016103419755813818531_)"><path class="st4" d="M540 3444.7h23.8l-11.9-37.6-11.9 37.6z" id="Path_233_00000127026194989095554530000012546322447111299981_"/></g></g></g><path class="st2" d="M925.1 3411.3c-9.4-6.5-20.8-9.7-32.2-9h-18.5v69.5H893c11.4.7 22.8-2.5 32.2-8.9 7.9-6.1 12.2-15.7 11.7-25.7.4-10.1-4-19.7-11.8-25.9m-14 37.8c-4.4 2.7-9.5 4-14.6 3.8H894v-33.5h2.5c5.1-.2 10.2 1.2 14.6 3.8 4.2 2.9 6.5 7.8 6 12.9.4 5.2-1.9 10.1-6 13" id="Path_234_00000151529551300629212630000001764981819915778978_"/><path class="st2" d="M944.9 3479.9c3.9-2.8 7.3-6.2 10.2-10 2.9-4.1 5.2-8.5 7-13.1 2.3-6.2 3.3-12.7 3.2-19.2.2-8.7-1.6-17.3-5.1-25.2-3.3-7.1-8.1-13.4-14.1-18.4-6.3-5.1-13.6-9-21.4-11.3-8.7-2.6-17.7-3.9-26.8-3.8h-42.5c3 6.7-.2 16.5-9.5 16.9v134H894v-38.2l22.6 38.2h56.6l-28.3-49.9zm-6.4 31.7h-7l-21.5-36.2c-5.7 1.2-11.4 1.8-17.2 1.8h-18.6v34.4h-5.9v-114.7h24.4c6.7-.1 13.3.8 19.7 2.6 5.7 1.6 11 4.2 15.7 7.7 4.4 3.3 8 7.6 10.5 12.6 2.7 5.4 4 11.4 3.8 17.4.4 8.3-2.2 16.5-7.2 23.2-5.1 6.2-11.9 10.7-19.5 13.2l22.8 38z"/><g id="Group_75_00000141444127042375657380000003991018657802326164_" transform="translate(52.74 6.168)"><g id="Group_74_00000010295574715363887180000000407579593933423249_"><defs><path id="SVGID_00000075161111252662887930000017716181377916145313_" d="M649.4 3396h104.1v52H649.4z"/></defs><clipPath id="SVGID_00000043425267871268561340000011608223768819236743_"><use xlink:href="#SVGID_00000075161111252662887930000017716181377916145313_" style="overflow:visible"/></clipPath><g id="Group_73_00000054946296181783094490000011984177511599700884_" style="clip-path:url(#SVGID_00000043425267871268561340000011608223768819236743_)"><path class="st4" d="M738.2 3411.3c-4.7-4.7-10.3-8.5-16.5-11.2-13-5.4-27.5-5.4-40.5 0-12.5 5.4-22.4 15.3-27.7 27.7-2.7 6.4-4.1 13.3-4.1 20.2h20.4c0-4.2.8-8.4 2.5-12.3 3.2-7.6 9.3-13.6 16.9-16.9 7.9-3.3 16.8-3.3 24.6 0 7.6 3.2 13.6 9.3 16.9 16.9 1.7 3.9 2.5 8.1 2.5 12.3h20.4c.1-7-1.3-13.9-4.1-20.2-2.8-6.2-6.6-11.8-11.3-16.5" id="Path_236_00000011013584679242640330000008467101503511266971_"/></g></g></g><g id="Group_78_00000170960193491226923530000013907743039042875823_" transform="translate(46.571)"><g id="Group_77_00000135662775048683718290000016673927582550544789_"><defs><path id="SVGID_00000025421541099939659970000011318294004002594456_" d="M628.4 3375h158.4v79.2H628.4z"/></defs><clipPath id="SVGID_00000170993612119845458850000006449335065728800191_"><use xlink:href="#SVGID_00000025421541099939659970000011318294004002594456_" style="overflow:visible"/></clipPath><g id="Group_76_00000127019485678280272870000015567274415374716041_" style="clip-path:url(#SVGID_00000170993612119845458850000006449335065728800191_)"><path class="st4" d="M763.6 3398.2c-7.2-7.2-15.8-13-25.2-17-19.7-8.3-41.9-8.3-61.5 0-19 8-34.2 23.2-42.2 42.2-4.2 9.7-6.3 20.2-6.2 30.8h21.3c-.1-7.7 1.5-15.4 4.5-22.5 5.9-13.9 17-25 30.9-30.9 14.4-6 30.6-6 45 0 13.9 5.9 25 17 30.9 30.9 3 7.1 4.6 14.8 4.5 22.5h21.3c.1-10.6-2.1-21-6.2-30.8-4.1-9.4-9.9-18-17.1-25.2" id="Path_237_00000008130543805069951520000018402635999498417820_"/></g></g></g><g id="Group_81_00000054971287002025320880000016765965372389604225_" transform="translate(85.381 .822)"><g id="Group_80_00000126305526697348055540000009709163927745648036_"><defs><path id="SVGID_00000071537750980271294120000009640829932932339091_" d="M769.2 3377.8H871c4.9 0 8.8 3.9 8.8 8.8v66.8H760.4v-66.8c0-4.9 3.9-8.8 8.8-8.8z"/></defs><clipPath id="SVGID_00000009570052125114941940000009879562809355117736_"><use xlink:href="#SVGID_00000071537750980271294120000009640829932932339091_" style="overflow:visible"/></clipPath><g id="Group_79_00000129910545458896992780000001185396771745989779_" style="clip-path:url(#SVGID_00000009570052125114941940000009879562809355117736_)"><path class="st4" d="M860.6 3393c-6.3-5.1-13.6-9-21.4-11.3-8.7-2.6-17.7-3.9-26.8-3.8h-52v75.6H783V3396h24.4c6.7-.1 13.3.8 19.7 2.6 5.7 1.6 11 4.2 15.7 7.7 4.4 3.3 8 7.6 10.5 12.6 2.7 5.4 4 11.4 3.8 17.4.1 5.9-1.1 11.8-3.5 17.2h23.8c1.6-5.4 2.4-11.1 2.3-16.7.2-8.7-1.6-17.3-5.1-25.2-3.1-7.3-7.9-13.6-14-18.6" id="Path_238_00000178178605166727282270000000318931248596908706_"/></g></g></g><path class="st4" d="M925.1 3411.2c-9.4-6.5-20.8-9.7-32.2-9h-18.5v52h58.3c2.9-5.3 4.3-11.2 4.2-17.2.4-10-4-19.6-11.8-25.8m-14 37.8c-4.4 2.7-9.5 4-14.6 3.8H894v-33.5h2.5c5.1-.2 10.2 1.2 14.6 3.8 4.2 2.9 6.5 7.8 6 12.9.4 5.1-1.9 10.1-6 13" id="Path_239_00000160178708948123574950000014298647506466834084_"/><g id="Group_87_00000090980836251716069990000012879774117754372238_" transform="translate(115.348 .848)"><g id="Group_86_00000142145973030289370070000011228679297523775406_"><defs><path id="SVGID_00000031192292824801360370000017336133397516732547_" d="M871.1 3377.9h32.6c4.9 0 8.8 3.9 8.8 8.8v66.5h-50.2v-66.5c0-4.9 4-8.8 8.8-8.8z"/></defs><clipPath id="SVGID_00000051356434899836534120000005477062269847086754_"><use xlink:href="#SVGID_00000031192292824801360370000017336133397516732547_" style="overflow:visible"/></clipPath><g id="Group_85_00000147943247100960185120000012233921919833237396_" style="clip-path:url(#SVGID_00000051356434899836534120000005477062269847086754_)"><path class="st4" d="M862.3 3453.2H885V3396h5.9v57.2h21.7v-75.3h-50.2v75.3z" id="Path_241_00000076581148728592074910000006511993885852238509_"/></g></g></g><g id="Group_90_00000162352839026521930380000006272991495274339203_" transform="translate(138.017 .822)"><g id="Group_89_00000034790438962224802340000007817400165616007609_"><defs><path id="SVGID_00000001635173295371526720000011967278748024385668_" d="M948.2 3377.8h113.6c4.9 0 8.8 3.9 8.8 8.8v65.4H939.4v-65.4c0-4.9 4-8.8 8.8-8.8z"/></defs><clipPath id="SVGID_00000020392869422474818510000016307336098035539119_"><use xlink:href="#SVGID_00000001635173295371526720000011967278748024385668_" style="overflow:visible"/></clipPath><g id="Group_88_00000100363801807718260310000008466048393572130981_" style="clip-path:url(#SVGID_00000020392869422474818510000016307336098035539119_)"><path class="st4" d="M1064.7 3420.4c-3.8-9.2-9.8-17.3-17.4-23.6-8.3-6.7-17.8-11.5-28.1-14.3-12.4-3.3-25.1-4.9-37.9-4.8h-41.8v74.2h22.6v-56.1h19.2c22 0 38.6 5 49.9 14.9 11 9.8 16.6 23.5 16.8 41.2h22.6c.1-10.7-1.9-21.4-5.9-31.5" id="Path_242_00000168087753845349295290000003316004908149751730_"/></g></g></g><g id="Group_93_00000034768106423919391960000005396371471620285083_" transform="translate(144.494 6.168)"><g id="Group_92_00000155865270677152308740000010344239183003109795_"><defs><path id="SVGID_00000152262320923926311290000006640754839745987200_" d="M961.5 3396h74v52.6h-74z"/></defs><clipPath id="SVGID_00000075163352039233967060000004892462818022880645_"><use xlink:href="#SVGID_00000152262320923926311290000006640754839745987200_" style="overflow:visible"/></clipPath><g id="Group_91_00000119840583273626080600000018258781430663665822_" style="clip-path:url(#SVGID_00000075163352039233967060000004892462818022880645_)"><path class="st4" d="M1019.5 3409c-10.6-8.7-25.5-13-44.7-13h-13.3v52.6h19.7v-33.1c9.4-.6 18.7 2.2 26.2 7.9 6.2 5.3 9.3 13.4 9.3 24.4v.8h18.8v-.8c-.1-17.2-5.4-30.1-16-38.8" id="Path_243_00000170243397192857684560000012795626276947857818_"/></g></g></g><g id="Group_96_00000124130308772234213800000014836504735786846899_" transform="translate(176.055 6.168)"><g id="Group_95_00000031176326949808828730000004769803748121712780_"><defs><path id="SVGID_00000115485031257221579100000010050484367671728570_" d="M1068.8 3396h104.1v52h-104.1z"/></defs><clipPath id="SVGID_00000170992174976970212320000015902151300271374251_"><use xlink:href="#SVGID_00000115485031257221579100000010050484367671728570_" style="overflow:visible"/></clipPath><g id="Group_94_00000086677617638343755770000010405365467043889543_" style="clip-path:url(#SVGID_00000170992174976970212320000015902151300271374251_)"><path class="st4" d="M1157.6 3411.3c-4.7-4.7-10.3-8.5-16.5-11.2-13-5.4-27.5-5.4-40.5 0-12.4 5.4-22.4 15.3-27.7 27.7-2.7 6.4-4.1 13.3-4.1 20.2h20.4c0-4.2.8-8.4 2.5-12.3 3.2-7.6 9.3-13.6 16.9-16.9 7.9-3.3 16.8-3.3 24.6 0 7.6 3.2 13.6 9.3 16.9 16.9 1.7 3.9 2.5 8.1 2.5 12.3h20.4c.1-7-1.3-13.9-4.1-20.2-2.8-6.2-6.6-11.8-11.3-16.5" id="Path_244_00000183962851646037156020000014858307398440360106_"/></g></g></g><g id="Group_99_00000165938910534052973770000012121679089282193065_" transform="translate(169.887)"><g id="Group_98_00000069360669797999014290000009927103036907767478_"><defs><path id="SVGID_00000106847889653174397390000009274498227794962360_" d="M1047.8 3375h158.4v79.2h-158.4z"/></defs><clipPath id="SVGID_00000134961109176125048330000001551534799879159457_"><use xlink:href="#SVGID_00000106847889653174397390000009274498227794962360_" style="overflow:visible"/></clipPath><g id="Group_97_00000163789055567293832890000006664675725529204399_" style="clip-path:url(#SVGID_00000134961109176125048330000001551534799879159457_)"><path class="st4" d="M1183 3398.2c-7.2-7.2-15.8-13-25.2-17-19.7-8.3-41.9-8.3-61.5 0-19 8-34.2 23.2-42.2 42.2-4.2 9.7-6.3 20.2-6.2 30.8h21.3c-.1-7.7 1.5-15.4 4.5-22.5 5.9-13.9 17-25 30.9-30.9 14.4-6 30.6-6 45 0 13.9 5.9 25 17 30.9 30.9 3 7.1 4.6 14.8 4.5 22.5h21.3c.1-10.6-2.1-21-6.2-30.8-4.1-9.4-9.9-18-17.1-25.2" id="Path_245_00000067207330995622339060000012131070891528466057_"/></g></g></g><g id="Group_102_00000121248679146622734060000017591861378571783085_" transform="translate(208.696 .822)"><g id="Group_101_00000139283174082576889990000010074905067858491290_"><defs><path id="SVGID_00000177467607547099948900000000897812385563301535_" d="M1188.6 3377.8h71.3c4.9 0 8.8 3.9 8.8 8.8v65.6h-88.9v-65.6c0-4.9 4-8.8 8.8-8.8z"/></defs><clipPath id="SVGID_00000157285078303812212170000016768048782445359507_"><use xlink:href="#SVGID_00000177467607547099948900000000897812385563301535_" style="overflow:visible"/></clipPath><g id="Group_100_00000155842707364304020620000013368031622516322441_" style="clip-path:url(#SVGID_00000157285078303812212170000016768048782445359507_)"><path class="st4" d="M1179.8 3452.2h22.6v-56.3h51.1v5.4h-45.3v48.9h43v2h16.7v-18H1228v-16.7h40.8v-39.6h-88.9v74.3z" id="Path_246_00000063594068690053202730000000433790639322319039_"/></g></g></g><g id="Group_105_00000045595450202211922590000016140669417511226037_" transform="translate(231.365 .822)"><g id="Group_104_00000020366241410734007720000011594638785842091436_"><defs><path id="SVGID_00000021809484931191511610000009997547961009744265_" d="M1265.7 3377.8h94.4c4.9 0 8.8 3.9 8.8 8.8v58c0 4.9-3.9 8.8-8.8 8.8h-94.4c-4.9 0-8.8-3.9-8.8-8.8v-58c0-4.9 4-8.8 8.8-8.8z"/></defs><clipPath id="SVGID_00000096738710003452246790000013946171084229491870_"><use xlink:href="#SVGID_00000021809484931191511610000009997547961009744265_" style="overflow:visible"/></clipPath><g id="Group_103_00000011021151491739784070000013134465831111814306_" style="clip-path:url(#SVGID_00000096738710003452246790000013946171084229491870_)"><path class="st4" d="M1256.9 3417.4h41.6l-17 35.9h22.5l24.6-52H1282l2-5.4h53.9l-27.1 57.5h22.5l35.6-75.6h-96.6l-15.4 39.6z" id="Path_247_00000117654415062720946510000017180131242656819077_"/></g></g></g><g id="Group_108_00000093159849959814187720000006641335553964816534_" transform="translate(258.351 .822)"><g id="Group_107_00000115505561282118096080000002277729532274914734_"><defs><path id="SVGID_00000124123271633631232100000007052527929295929479_" d="M1357.5 3377.8h71.3c4.9 0 8.8 3.9 8.8 8.8v65h-88.9v-65c0-4.9 4-8.8 8.8-8.8z"/></defs><clipPath id="SVGID_00000154392039751259468990000012663891484582941089_"><use xlink:href="#SVGID_00000124123271633631232100000007052527929295929479_" style="overflow:visible"/></clipPath><g id="Group_106_00000088825743374077622830000018055034384256786064_" style="clip-path:url(#SVGID_00000154392039751259468990000012663891484582941089_)"><path class="st4" d="M1348.7 3451.6h22.6v-55.7h51.1v5.4h-45.2v48.9h43v1.4h16.7v-17.4h-40.1v-16.7h40.8v-39.6h-88.9v73.7z" id="Path_248_00000042729853998125864390000008617926509486223291_"/></g></g></g><g id="Group_111_00000050657233263534250700000014960208351375174334_" transform="translate(281.996 .822)"><g id="Group_110_00000035509694707838911490000005356087635146546316_"><defs><path id="SVGID_00000102528295465612189610000010948166058822527144_" d="M1437.9 3377.8h32.6c4.9 0 8.8 3.9 8.8 8.8v64.7h-50.2v-64.7c0-4.9 4-8.8 8.8-8.8z"/></defs><clipPath id="SVGID_00000103946623975987664680000004088408648365480891_"><use xlink:href="#SVGID_00000102528295465612189610000010948166058822527144_" style="overflow:visible"/></clipPath><g id="Group_109_00000026857270165543984320000000259679211386434447_" style="clip-path:url(#SVGID_00000103946623975987664680000004088408648365480891_)"><path class="st4" d="M1429.1 3451.3h22.6v-55.4h5.9v55.4h21.7v-73.5h-50.2v73.5z" id="Path_249_00000098198038913927808270000011116375509858923422_"/></g></g></g><g id="Group_114_00000138534472515125282580000001122685747456531078_" transform="translate(304.665 .822)"><g id="Group_113_00000137103952257856471340000008899435855943535805_"><defs><path id="SVGID_00000116946589939902372430000006883897514700784796_" d="M1515 3377.8h71.3c4.9 0 8.8 3.9 8.8 8.8v64.7h-88.9v-64.7c0-4.9 4-8.8 8.8-8.8z"/></defs><clipPath id="SVGID_00000020395006724586568540000000148084467711299735_"><use xlink:href="#SVGID_00000116946589939902372430000006883897514700784796_" style="overflow:visible"/></clipPath><g id="Group_112_00000172432168984005642180000006922044799352822447_" style="clip-path:url(#SVGID_00000020395006724586568540000000148084467711299735_)"><path class="st4" d="M1506.2 3451.3h22.6v-55.4h51.1v5.4h-45.2v48.9h43v1.1h16.7v-17.1h-40.1v-16.7h40.7v-39.6h-88.9l.1 73.4z" id="Path_250_00000000206797852502646480000010695971552660688519_"/></g></g></g><g id="Group_117_00000024706802612319009950000015455614230408320181_" transform="translate(328.31 .822)"><g id="Group_116_00000153680383417742648560000003680151561933533867_"><defs><path id="SVGID_00000033357061699041222710000012882325443121839268_" d="M1595.5 3377.8h110.9c4.9 0 8.8 3.9 8.8 8.8v64.7h-128.5v-64.7c0-4.9 3.9-8.8 8.8-8.8z"/></defs><clipPath id="SVGID_00000038409915890252362830000015965564399230018476_"><use xlink:href="#SVGID_00000033357061699041222710000012882325443121839268_" style="overflow:visible"/></clipPath><g id="Group_115_00000036209101159807211270000004233237324168044709_" style="clip-path:url(#SVGID_00000038409915890252362830000015965564399230018476_)"><path class="st4" d="m1667.9 3435.9-41.6-58.1h-39.6v73.5h21v-55.4h5.9l39.6 55.4h35.1v-55.4h5.9v55.4h21v-73.5h-47.3v58.1z" id="Path_251_00000142887760326855909230000018434435697449904775_"/></g></g></g><g id="Group_120_00000152255553412161641760000018074074373711818380_" transform="translate(334.427 7.248)"><g id="Group_119_00000013178585841201326810000015460028812370408836_"><defs><path id="SVGID_00000107579563090561689810000016631485174568168341_" d="M1607.5 3399.7h32.3v45.2h-32.3z"/></defs><clipPath id="SVGID_00000147208166848440364870000013535232391832678272_"><use xlink:href="#SVGID_00000107579563090561689810000016631485174568168341_" style="overflow:visible"/></clipPath><g id="Group_118_00000160173575596204026980000017274269230288901002_" style="clip-path:url(#SVGID_00000147208166848440364870000013535232391832678272_)"><path class="st4" d="M1607.5 3444.8h32.3l-32.3-45.2v45.2z" id="Path_252_00000181083417996232652130000010685302077502153107_"/></g></g></g><g id="Group_123_00000062906496486051361590000016542587627029473945_" transform="translate(360.077)"><g id="Group_122_00000080193464882487922160000017784490270794430346_"><defs><path id="SVGID_00000116206264024783764550000016420931861923323265_" d="M1703.5 3375h66.3c4.9 0 8.8 3.9 8.8 8.8v68.6h-83.9v-68.6c0-4.9 4-8.8 8.8-8.8z"/></defs><clipPath id="SVGID_00000043435620406143428130000002887328077306864000_"><use xlink:href="#SVGID_00000116206264024783764550000016420931861923323265_" style="overflow:visible"/></clipPath><g id="Group_121_00000037692561508502823170000006387504193056800936_" style="clip-path:url(#SVGID_00000043435620406143428130000002887328077306864000_)"><path class="st4" d="M1754.9 3419.8c1.3-.3 2.5-.5 3.8-.6 1.4-.1 2.5-.1 3.4-.1 1.7 0 3.2.1 4.8.2 1.5.1 2.9.3 4.1.4 1.5.1 2.9.3 4.1.4v-42.3c-3.2-.5-6.4-.9-9.7-1.4l-9.7-1c-3.6-.4-7.2-.6-10.9-.6-6.6 0-13.2.9-19.6 2.8-5.8 1.7-11.2 4.5-16 8.3-4.5 3.6-8.2 8.3-10.6 13.6-2.7 5.9-4 12.3-3.8 18.8-.1 5.8 1 11.5 3.2 16.9 2 4.8 4.7 9.2 8 13.2 1.1 1.4 2.3 2.6 3.5 3.9h30.8l-.3-.3c-3.8-3.3-7.5-6.7-10.9-10.3-3.2-3.3-6-6.9-8.4-10.9-2.2-3.6-3.3-7.7-3.3-11.9-.5-6.7 2.5-13.3 7.9-17.3 6-3.9 13-5.8 20.1-5.5 1.4 0 2.7 0 4 .1 1.3.1 2.4.2 3.5.3 1.1.1 2.3.2 3.4.2v5.9c-1.2 0-2.4-.1-3.6-.2-1.2-.1-2.5-.3-3.7-.3-1.3-.1-2.5-.1-3.7-.1-5.9-.5-11.8 1-16.7 4.4-3.6 3.2-5.5 7.8-5.2 12.6 0 3.8 1.2 7.4 3.3 10.5 2.4 3.7 5.2 7.1 8.4 10.2 3.4 3.4 7 6.8 10.9 10.1 1 .8 1.9 1.7 2.8 2.5h30.1c-2.4-3.1-5.1-6-8-8.6-3.5-3.2-6.8-6-9.7-8.4-2.9-2.4-5.4-4.5-7.5-6.3-2-1.8-3.1-3.3-3.1-4.5-.1-1.2.4-2.4 1.4-3.2.7-.7 1.7-1.2 2.9-1.5" id="Path_253_00000164473715793037350300000011968304417333398460_"/></g></g></g><g id="Group_126_00000029728081470704556310000012095467864060093852_" transform="translate(395.927 17.425)"><g id="Group_125_00000089567890808635886050000018210323117316685705_"><defs><path id="SVGID_00000076581912284917569530000000044070300690621088_" d="M1816.6 3434.3h1.1v.7h-1.1z"/></defs><clipPath id="SVGID_00000073701063087982597370000011994511465034940607_"><use xlink:href="#SVGID_00000076581912284917569530000000044070300690621088_" style="overflow:visible"/></clipPath><g id="Group_124_00000148657903798477588520000008594891582793243051_" style="clip-path:url(#SVGID_00000073701063087982597370000011994511465034940607_)"><path class="st4" d="m1817.7 3435-.5-.7-.6.7h1.1z" id="Path_254_00000145759074961972508190000002841361948693810576_"/></g></g></g><path class="st4" d="M2433 3379.4c-.4-.6-.4-.6-1.6-.8h-50.9l-17.2 31.9-17.4-31.9h-107.5l-28.5 34.8v-34.8H2161v73.8h22.6v-55.7h5.9v55.7h15.7l45.1-55.7h7.2l-40.5 50.2 3.7 5.5h26.7l-3.3-4.8 50.1-65 38 69.8h25l-30.1-55.7h6.8l29.2 53.6 29-53.6h7l-30.3 55.7h25l35.7-65.5 3.7-6.1c.1-1.1.1-1.1-.2-1.4z" id="Group_127_00000180359455754074110770000010184364314371658162_"/></g><path class="st2" d="M1705.1 3637.4c-4.9 0-9.4 1.1-13.6 3.2-4.2 2.1-7.4 5-9.6 8.6v-39.6h-10v95.5h10v-46.2c2-3.6 4.9-6.5 8.8-8.6 3.8-2.1 8-3.2 12.4-3.2 5.8 0 10.5 1.9 14.1 5.8 3.6 3.8 5.3 9 5.3 15.4v36.8h10v-38.2c0-8.9-2.5-16.1-7.5-21.5s-11.7-8-19.9-8zM1781.1 3637.4c-9.4 0-17.4 3.3-23.9 9.9-6.5 6.6-9.8 14.7-9.8 24.2 0 4.9.9 9.6 2.7 13.9s4.2 8 7.2 11.1c3 3.1 6.6 5.5 10.8 7.3 4.2 1.8 8.5 2.7 13.2 2.7 6.7 0 12.7-1.3 18-4 5.3-2.7 9.2-6.3 11.7-10.9l-7.9-5.1c-1.9 3.4-4.8 6-8.6 8s-8.2 2.9-13 2.9c-6.9 0-12.6-2.2-17.1-6.7-4.5-4.5-7-10.4-7.4-17.7h55.4c.2-1.8.3-3.2.3-4.1 0-8.9-3-16.4-9.1-22.4-6-6.1-13.5-9.1-22.5-9.1zm-23.4 27.9c1.2-5.9 3.8-10.6 8-14.2 4.2-3.6 9.2-5.4 15-5.4 5.9 0 10.9 1.8 15 5.5s6.4 8.3 6.8 14h-44.8zM1827.8 3609.6h10v95.5h-10zM1890.2 3637.4c-4.7 0-9.3 1.1-13.7 3.3-4.4 2.2-7.6 5-9.6 8.3v-10.2h-10v91.4h10v-35.5c1.9 3.3 5.1 6.1 9.5 8.4 4.4 2.2 9 3.4 13.8 3.4 6.1 0 11.7-1.5 16.8-4.5 5.1-3 9-7.2 11.9-12.5 2.9-5.3 4.3-11.1 4.3-17.5 0-9.8-3.2-18-9.5-24.6-6.3-6.7-14.1-10-23.5-10zm16 52.5c-4.8 4.8-10.7 7.2-17.8 7.2-4.4 0-8.6-1.1-12.6-3.4s-7-5.2-8.9-8.7v-26c2-3.6 4.9-6.5 9-8.8 4-2.3 8.2-3.4 12.6-3.4 7.1 0 13 2.4 17.8 7.2 4.8 4.8 7.2 10.8 7.2 18-.1 7.1-2.5 13.1-7.3 17.9zM2034.8 3669.3c0 7.8-2.5 14.2-7.4 19.4-5 5.2-11.2 7.8-18.6 7.8-7.5 0-13.7-2.6-18.7-7.8-5-5.2-7.4-11.6-7.4-19.4v-59.8h-10.2v59.8c0 7 1.6 13.3 4.7 19 3.1 5.7 7.5 10.1 13 13.3 5.6 3.2 11.7 4.8 18.6 4.8 6.9 0 13.1-1.6 18.7-4.8 5.6-3.2 9.9-7.6 13-13.3 3.1-5.6 4.7-12 4.7-19v-59.8h-10.3v59.8zM2120 3638.8h-12.5l-32.1 29.6v-58.8h-10v95.5h10v-32.4l33.6 32.4h13.2l-36.7-34.6zM2151.8 3640.7c-3.4 2.2-6 5-7.8 8.6v-10.5h-10v66.3h10v-45.7c2-3.9 4.7-7 8-9.4 3.3-2.3 6.4-3.5 9.5-3.5 2.6 0 5 .4 7.1 1.3l.5-9.4c-2.3-.7-4.6-1-7-1-3.4 0-6.9 1.1-10.3 3.3zM2228.8 3649.1c-1.8-3.3-4.9-6.1-9.4-8.4-4.4-2.2-9-3.4-13.8-3.4-9.4 0-17.3 3.3-23.7 9.9-6.4 6.6-9.5 14.7-9.5 24.5s3.2 18 9.5 24.7c6.4 6.6 14.2 10 23.7 10 4.8 0 9.3-1.1 13.7-3.4 4.4-2.2 7.5-5 9.5-8.4v10.4h9.9v-66.3h-9.9v10.4zm0 35.9c-2 3.5-5 6.3-9 8.6s-8.2 3.4-12.6 3.4c-7.1 0-13-2.4-17.8-7.2s-7.2-10.8-7.2-18c0-7.2 2.4-13.2 7.2-18 4.8-4.8 10.7-7.2 17.8-7.2 4.4 0 8.7 1.1 12.7 3.4s7 5.3 8.9 8.9v26.1zM2262.9 3609.8c-2 0-3.6.7-5 2.1-1.4 1.4-2.1 3.1-2.1 5 0 2 .7 3.7 2.1 5.1 1.4 1.4 3 2.1 5 2.1 1.9 0 3.6-.7 5.1-2.2 1.5-1.4 2.2-3.1 2.2-5.1 0-1.9-.7-3.6-2.2-5-1.5-1.3-3.2-2-5.1-2zM2257.8 3638.8h10v66.3h-10zM2320 3637.4c-4.9 0-9.4 1.1-13.6 3.2-4.2 2.1-7.4 5-9.6 8.6v-10.3h-10v66.3h10V3659c2-3.6 4.9-6.5 8.8-8.6 3.8-2.1 8-3.2 12.4-3.2 5.8 0 10.5 1.9 14.1 5.8 3.6 3.8 5.3 9 5.3 15.4v36.8h10V3667c0-8.9-2.5-16.1-7.5-21.5-5-5.4-11.6-8.1-19.9-8.1zM2427.8 3668.9c0-8.9-3-16.4-9.1-22.4-6.1-6.1-13.6-9.1-22.5-9.1-9.4 0-17.4 3.3-23.9 9.9-6.5 6.6-9.8 14.7-9.8 24.2 0 4.9.9 9.6 2.7 13.9s4.2 8 7.2 11.1c3 3.1 6.6 5.5 10.8 7.3 4.2 1.8 8.5 2.7 13.2 2.7 6.7 0 12.7-1.3 18-4 5.3-2.7 9.2-6.3 11.7-10.9l-7.9-5.1c-1.9 3.4-4.8 6-8.6 8s-8.2 2.9-13 2.9c-6.9 0-12.6-2.2-17.1-6.7-4.5-4.5-7-10.4-7.4-17.7h55.4c.2-1.7.3-3.1.3-4.1zm-55.1-3.6c1.2-5.9 3.8-10.6 8-14.2 4.2-3.6 9.2-5.4 15-5.4 5.9 0 10.9 1.8 15 5.5s6.4 8.3 6.8 14h-44.8z" transform="translate(-470 -3375)"/></g></g></svg>